PathFileType	4	(X/Y/Z)	Patient5_TMGait_0pt45_1_left_03.trc.trc
DataRate	CameraRate	NumFrames	NumMarkers	Units	OrigDataRate	OrigDataStartFrame	OrigNumFrames
58.091286307054	58.091286307054	4	32	mm	58.091286307054	18	       141
Frame#	Time	R.ASIS			L.ASIS			Chest			R.Shoulder			Neck			L.Shoulder			L.Elbow			L.Wrist			R.Elbow			R.Wrist			L.Thigh.Superior			L.Thigh.Lateral			L.Thigh.Inferior			L.Patella			L.Shank.Superior			L.Shank.Lateral			L.Shank.Inferior			L.Heel			L.Midfoot.Lateral			L.Midfoot.Superior			L.Toe			R.Thigh.Superior			R.Thigh.Lateral			R.Thigh.Inferior			R.Patella			R.Shank.Superior			R.Shank.Lateral			R.Shank.Inferior			R.Heel			R.Midfoot.Lateral			R.Midfoot.Superior			R.Toe			
		X1	Y1	Z1	X2	Y2	Z2	X3	Y3	Z3	X4	Y4	Z4	X5	Y5	Z5	X6	Y6	Z6	X7	Y7	Z7	X8	Y8	Z8	X9	Y9	Z9	X10	Y10	Z10	X11	Y11	Z11	X12	Y12	Z12	X13	Y13	Z13	X14	Y14	Z14	X15	Y15	Z15	X16	Y16	Z16	X17	Y17	Z17	X18	Y18	Z18	X19	Y19	Z19	X20	Y20	Z20	X21	Y21	Z21	X22	Y22	Z22	X23	Y23	Z23	X24	Y24	Z24	X25	Y25	Z25	X26	Y26	Z26	X27	Y27	Z27	X28	Y28	Z28	X29	Y29	Z29	X30	Y30	Z30	X31	Y31	Z31	X32	Y32	Z32	

18	3.672642857143	943.187331763003	961.541357895519	637.561976372414	912.926622337459	957.207315371961	398.498517569660	1028.211543063050	1417.182488922125	536.103037410444	956.061174759373	1479.415435810197	716.088946679019	904.623225944880	1546.789406380342	539.023061834272	946.910007240346	1497.346097286172	350.720455755589	829.206987060943	1186.659124670505	230.191475548598	949.129389655898	925.663047835788	216.951186849195	898.060648635680	1162.836443562660	869.938323455024	1094.084394060536	963.782138069153	793.399825076529	985.421521961586	788.073318216141	365.430225931923	948.622665203948	703.680893527265	312.613329941273	1046.369270984109	676.755847214991	365.652800365669	1100.492148762486	551.604678916136	344.126010916670	1057.509687174436	439.858516048154	363.134289500012	975.917561082347	378.199699468599	293.745505677906	1023.391863203547	317.778366660891	369.541358915584	889.064698987064	86.038900139219	375.395330686700	965.140874982204	67.714784827357	298.361053334966	1068.846288700844	127.887482948048	324.469735195143	1172.142856571507	88.963880333305	305.519473068879	923.182725416389	727.078017172175	646.441167532579	827.969372785295	659.730190227705	701.967729506127	891.764341673406	599.757683067018	619.255544276281	881.978999366153	505.556209838234	642.240892458560	831.663209160962	418.571621596787	603.720462556777	766.020543731917	349.541627611227	686.952340873880	813.017666658859	280.840729035115	597.588783791759	686.123765312062	54.284114902744	559.609434432674	767.881322356133	24.905778205412	629.074290139985	872.316878491763	87.225505483557	601.292206624880	976.061855273456	44.828694005415	595.667801099080	
19	3.689857142857	942.374285996058	960.682858571262	637.247491786008	914.507747203134	955.052361721927	398.344247119347	1029.424088603509	1415.999930698183	534.334235300529	956.631057442394	1479.244677610869	713.602327920278	905.767357105806	1545.753707724839	535.993482678217	949.202495301624	1495.320644125758	348.123809696139	831.841436984494	1183.962996528281	228.681436953758	953.302309796134	923.720379425951	216.368516173245	896.793038054572	1163.437345227346	868.493321426944	1091.380437757680	962.869920607214	792.243419017667	983.274770155233	782.946849066765	364.462249507877	944.841906036757	698.607136383071	312.783056562606	1042.476902763800	670.970806461266	365.774797311669	1096.417910893613	549.823392868790	345.607496386612	1060.655587090831	438.085259817118	365.017056362683	983.545115866427	370.634933623561	295.740793852010	1036.828371291032	313.459253245301	370.980284908501	920.760638268197	72.504166602612	376.146582548130	998.505535184628	58.054338412325	299.971389687972	1097.904870311875	125.427464288947	325.763204341653	1203.754189844608	93.176659130443	308.143640708658	920.600561427113	726.297407049863	646.344194134178	824.451291483663	659.660177049537	701.261658727842	888.166140025736	599.053865428595	619.127578748921	877.578568516661	504.832983341596	642.085812552914	826.706435883859	418.274231435793	603.382543474754	759.884204330162	349.835688733983	686.316215717192	806.863370590528	280.627648740089	597.427406265867	678.362952319520	54.317456364059	559.537068876453	760.050712035611	24.952771453781	629.064444631837	864.478387815184	87.123824457971	601.289612268194	968.183809191734	44.809167864306	595.742158730819	
20	3.707071428571	942.004215970571	959.956897226077	636.830350193259	916.944386438497	952.835903447284	398.040109230741	1030.480862867168	1414.932310557484	532.453118673654	956.625686354022	1479.043077674349	710.797446049764	906.660790252068	1544.649257707596	532.621462581183	951.629713534575	1493.333327755292	345.267554839627	834.992102098053	1181.221828645927	226.750074051107	957.511607994972	921.516783712189	215.482593613106	895.488047737212	1163.776112696792	866.485022913219	1088.710331990881	961.539434891248	790.955473972567	981.769165131650	777.014297950876	363.301132579658	941.186810496933	692.710311653985	313.230393082894	1038.750116964323	664.215966212599	366.166215093898	1091.855889237822	546.914855139681	348.039265367387	1062.504293156770	435.565889047077	367.921687229780	989.681851344201	363.241049685081	298.675129256743	1047.871419256430	309.291047664979	373.440872174233	948.126798788353	61.921548820630	377.229937113972	1027.670958317022	50.225079497030	302.517402045254	1123.010085471624	123.203036956773	328.844335900801	1230.781006008817	96.359569310276	313.349958153304	918.631907930534	725.585785574535	646.090581057597	821.488282943363	659.635201071776	700.270718814705	885.266014772267	598.406228161747	618.827402480378	873.739855832267	504.100757483270	641.787666495439	822.274013129507	417.925009368915	602.901189430909	754.098751907270	350.202736870872	685.491523893056	801.031170878191	280.385399063287	597.164234330078	670.612330543796	54.340013433751	559.449699250477	752.238341004591	25.001003031685	629.031380725646	856.662693145906	87.040044855800	601.293244709489	960.327681128018	44.765063773608	595.790512299086	
21	3.724285714286	942.109342308873	959.383982298634	636.252353552107	920.238110782280	950.698921592906	397.546804657406	1031.356459432276	1414.085920185404	530.454237399766	955.956494834782	1478.880601588297	707.681129475420	907.266291133348	1543.533770158394	528.907261749734	954.117537507677	1491.476631489455	342.157824831206	838.770221953604	1178.518789826772	224.309200936066	961.816649338708	919.095318102345	214.345977997031	894.055292724197	1163.910799627035	863.916406264329	1086.111080329108	959.997718783506	789.510752593951	981.208817542541	770.651169711632	362.142058713119	938.122313598069	686.382597526391	314.040317866765	1035.556433134395	656.927461713554	367.078174677155	1087.265452549820	543.140336173624	351.618469014679	1063.218319669572	432.347203225184	371.875894360530	994.292092248493	356.239972018879	302.507240620115	1056.178939406813	305.175999091533	376.928909967016	969.802048581459	54.232824276172	378.662237338761	1051.188090101248	44.099705870680	305.831805008654	1143.184846864091	120.716192940322	333.592987396532	1252.281734413391	97.577495751186	320.723224187590	917.329264784092	724.926236972696	645.646662735680	819.149594801423	659.652119064409	698.993501745847	883.105576929680	597.797536017638	618.330838674604	870.507755711240	503.359690416869	641.333038405713	818.378320236514	417.501912250443	602.272138742130	748.719376387431	350.658627898633	684.492943048423	795.550349644807	280.116588366807	596.798775803566	662.870460638815	54.374267135431	559.364889333351	744.448266240192	25.047221194008	628.978077017093	848.878790017966	86.976178551454	601.312280740961	952.497814411409	44.695813580152	595.817152525864	
